<?xml version="1.0" standalone="no"?>
<!DOCTYPE svg PUBLIC "-//W3C//DTD SVG 20010904//EN"
 "http://www.w3.org/TR/2001/REC-SVG-20010904/DTD/svg10.dtd">
<svg version="1.0" xmlns="http://www.w3.org/2000/svg"
 width="64.000000pt" height="64.000000pt" viewBox="0 0 64.000000 64.000000"
 preserveAspectRatio="xMidYMid meet">

<g transform="translate(0.000000,64.000000) scale(0.100000,-0.100000)"
fill="#000000" stroke="none">
<path d="M245 631 c-92 -24 -173 -90 -215 -176 -19 -41 -24 -66 -24 -135 -1
-78 2 -90 33 -148 38 -70 70 -100 145 -140 43 -22 64 -26 136 -26 72 0 93 4
136 26 75 40 107 70 145 140 31 58 34 70 33 148 0 72 -4 93 -26 136 -39 75
-70 107 -137 143 -65 34 -164 49 -226 32z m165 -47 c75 -22 149 -98 174 -178
22 -69 17 -145 -12 -202 l-20 -38 -7 34 c-5 21 -27 53 -59 85 -52 52 -52 52
-38 86 48 117 -88 235 -196 169 -63 -38 -90 -121 -58 -178 12 -22 9 -28 -39
-75 -28 -29 -55 -67 -61 -87 l-10 -34 -18 37 c-27 58 -31 134 -12 202 14 45
29 69 70 111 80 79 173 102 286 68z m-41 -78 c47 -25 63 -83 37 -135 -35 -66
-137 -66 -172 0 -47 91 44 182 135 135z m-49 -219 c25 0 57 4 72 8 22 6 32 1
65 -32 47 -47 74 -123 52 -149 -23 -28 -110 -66 -164 -71 -65 -7 -150 18 -196
56 l-33 28 14 48 c9 32 27 62 53 88 33 33 43 38 65 32 15 -4 47 -8 72 -8z"/>
</g>
</svg>
