<?xml version="1.0" standalone="no"?>
<!DOCTYPE svg PUBLIC "-//W3C//DTD SVG 20010904//EN"
 "http://www.w3.org/TR/2001/REC-SVG-20010904/DTD/svg10.dtd">
<svg version="1.0" xmlns="http://www.w3.org/2000/svg"
 width="300.000000pt" height="300.000000pt" viewBox="0 0 300.000000 300.000000"
 preserveAspectRatio="xMidYMid meet">
<metadata>
Created by potrace 1.10, written by Peter Selinger 2001-2011
</metadata>
<g transform="translate(0.000000,300.000000) scale(0.100000,-0.100000)"
fill="#000000" stroke="none">
<path d="M1405 2774 c-11 -2 -40 -10 -65 -16 -25 -6 -81 -29 -125 -52 -185
-94 -305 -283 -305 -481 l0 -70 -113 0 c-118 -1 -152 -10 -205 -59 -63 -56
-61 -40 -118 -841 -30 -407 -54 -769 -54 -805 0 -74 22 -130 66 -172 65 -61
18 -58 1014 -58 996 0 949 -3 1014 58 44 42 66 98 66 172 0 36 -24 398 -54
805 -56 786 -54 773 -110 833 -47 52 -92 66 -213 67 l-113 0 0 59 c0 127 -62
275 -159 378 -110 118 -243 178 -406 183 -55 2 -109 2 -120 -1z m266 -63 c121
-38 238 -131 303 -242 43 -73 65 -139 75 -234 13 -112 21 -118 166 -125 94 -4
119 -9 141 -26 39 -29 64 -65 73 -106 15 -65 115 -1542 107 -1581 -10 -53 -65
-111 -118 -126 -32 -9 -279 -11 -944 -9 l-901 3 -37 29 c-58 44 -76 81 -76
155 0 36 20 348 45 695 25 347 47 669 51 716 7 110 19 152 50 190 40 47 60 54
181 60 146 7 153 13 163 137 17 192 119 342 293 428 137 67 286 80 428 36z"/>
<path d="M1375 2617 c-182 -61 -310 -221 -318 -399 -2 -48 2 -61 21 -80 l23
-23 398 0 c475 0 445 -8 439 115 -7 148 -103 287 -246 358 -70 34 -82 37 -176
39 -64 2 -116 -2 -141 -10z m268 -51 c85 -35 135 -73 184 -139 46 -63 68 -124
79 -215 l6 -57 -412 0 -412 0 6 57 c11 91 33 152 79 215 80 108 190 163 327
163 67 0 97 -6 143 -24z"/>
<path d="M712 1994 c-12 -8 -26 -24 -32 -34 -9 -16 -34 -331 -85 -1070 -3 -47
-12 -166 -19 -265 -8 -99 -10 -189 -6 -200 4 -11 18 -29 30 -40 22 -20 36 -20
900 -20 l878 0 26 24 c23 22 26 32 26 92 0 56 -20 359 -45 684 -3 39 -17 229
-31 424 -13 194 -29 362 -34 372 -20 37 -52 49 -131 49 -140 0 -139 2 -139
-298 0 -209 -2 -230 -18 -245 -23 -21 -46 -22 -66 -1 -14 13 -16 50 -16 245 0
248 -6 280 -52 293 -13 3 -196 6 -408 6 -287 -1 -389 -4 -401 -13 -36 -27 -39
-53 -39 -285 0 -209 -2 -230 -18 -245 -23 -21 -46 -22 -66 -1 -14 13 -16 51
-16 259 l0 244 -26 20 c-22 17 -41 21 -108 21 -58 0 -88 -5 -104 -16z m198
-279 l0 -256 26 -24 c37 -34 96 -34 129 0 l25 24 0 256 0 255 410 0 410 0 0
-255 0 -256 25 -24 c33 -34 92 -34 129 0 l26 24 0 256 0 255 95 0 c67 0 97 -4
100 -12 8 -20 114 -1532 109 -1540 -7 -10 -1781 -10 -1788 0 -5 8 101 1520
109 1540 3 8 33 12 100 12 l95 0 0 -255z"/>
</g>
</svg>
