<?xml version="1.0" standalone="no"?>
<!DOCTYPE svg PUBLIC "-//W3C//DTD SVG 20010904//EN"
 "http://www.w3.org/TR/2001/REC-SVG-20010904/DTD/svg10.dtd">
<svg version="1.0" xmlns="http://www.w3.org/2000/svg"
 width="64.000000pt" height="64.000000pt" viewBox="0 0 64.000000 64.000000"
 preserveAspectRatio="xMidYMid meet">
<metadata>
Created by potrace 1.10, written by Peter Selinger 2001-2011
</metadata>
<g transform="translate(0.000000,64.000000) scale(0.100000,-0.100000)"
fill="#000000" stroke="none">
<path d="M190 631 c-72 -15 -130 -61 -165 -131 -21 -42 -24 -149 -5 -201 11
-30 10 -44 -3 -89 -9 -30 -15 -55 -13 -57 1 -1 25 5 53 14 48 15 55 15 104 0
28 -9 58 -17 65 -17 8 0 14 -6 14 -13 0 -26 52 -88 92 -108 46 -24 149 -30
185 -11 14 8 32 8 62 0 23 -6 44 -8 48 -5 3 4 1 25 -5 48 -8 30 -8 48 0 62 19
36 13 139 -11 185 -20 39 -82 92 -107 92 -7 0 -15 17 -19 37 -13 72 -64 142
-124 172 -43 22 -122 32 -171 22z m151 -54 c63 -34 102 -93 107 -164 3 -49 -1
-66 -25 -113 -23 -44 -39 -60 -83 -83 -48 -25 -63 -28 -113 -24 -32 3 -68 12
-80 20 -14 9 -29 11 -42 6 -11 -4 -28 -8 -37 -8 -15 -1 -16 2 -6 24 9 21 8 36
-6 76 -53 146 41 289 189 289 35 0 66 -8 96 -23z m210 -254 c15 -15 32 -38 38
-50 16 -31 14 -103 -4 -137 -12 -22 -13 -37 -6 -57 9 -27 9 -27 -18 -18 -20 7
-35 6 -57 -6 -37 -19 -107 -19 -143 -1 -36 19 -95 86 -84 96 4 3 28 12 51 19
55 16 125 84 141 137 7 21 14 45 17 52 5 17 30 3 65 -35z"/>
<path d="M196 507 c-31 -31 -34 -57 -6 -57 11 0 20 6 20 14 0 20 38 30 55 16
23 -19 18 -44 -15 -75 -35 -33 -40 -65 -10 -65 11 0 20 5 20 11 0 6 14 27 30
46 17 18 30 44 30 57 0 33 -29 65 -67 72 -26 5 -37 1 -57 -19z"/>
<path d="M220 279 c0 -15 5 -20 22 -17 31 4 33 38 2 38 -18 0 -24 -5 -24 -21z"/>
</g>
</svg>
