<?xml version="1.0" standalone="no"?>
<!DOCTYPE svg PUBLIC "-//W3C//DTD SVG 20010904//EN"
 "http://www.w3.org/TR/2001/REC-SVG-20010904/DTD/svg10.dtd">
<svg version="1.0" xmlns="http://www.w3.org/2000/svg"
 width="64.000000pt" height="64.000000pt" viewBox="0 0 64.000000 64.000000"
 preserveAspectRatio="xMidYMid meet">
<metadata>
Created by potrace 1.10, written by Peter Selinger 2001-2011
</metadata>
<g transform="translate(0.000000,64.000000) scale(0.100000,-0.100000)"
fill="#000000" stroke="none">
<path d="M476 545 c-31 -21 -48 -25 -110 -25 -53 0 -77 -4 -86 -15 -18 -22
-77 -19 -103 5 -35 33 -67 37 -87 10 -34 -45 -92 -161 -87 -174 3 -7 26 -23
51 -36 47 -22 59 -34 63 -60 1 -8 11 -21 22 -29 12 -7 21 -18 21 -23 0 -12 67
-78 80 -78 5 0 10 -7 10 -15 0 -19 36 -38 60 -30 11 4 25 15 30 26 8 14 17 18
34 13 14 -3 27 1 35 10 8 9 26 16 41 16 16 0 30 7 34 15 3 8 14 15 24 15 43 0
56 49 22 85 l-20 21 24 23 c13 12 39 30 57 40 48 26 56 44 35 75 -9 15 -21 24
-27 20 -6 -4 -5 -14 5 -28 13 -21 12 -24 -12 -39 l-27 -16 -47 82 -47 82 26
14 c23 11 27 11 35 -3 8 -15 38 -23 38 -11 0 14 -34 55 -45 55 -7 0 -29 -11
-49 -25z m-324 -47 c15 -12 12 -21 -27 -86 -24 -41 -46 -76 -48 -79 -7 -6 -47
16 -47 26 0 18 83 151 94 151 7 0 19 -6 28 -12z m342 -75 l45 -78 -24 -25 -25
-24 -45 44 c-40 39 -43 45 -30 60 8 9 15 24 15 33 0 20 -19 32 -24 15 -17 -54
-14 -53 -49 -20 l-33 32 -32 -32 c-25 -25 -34 -30 -44 -20 -9 9 -4 21 27 52
38 39 41 40 107 40 l67 0 45 -77z m-268 25 c-34 -54 31 -93 79 -48 l22 20 101
-102 c79 -80 98 -105 90 -116 -9 -10 -26 2 -83 58 -49 49 -75 68 -80 60 -5 -7
16 -36 56 -76 50 -50 61 -66 51 -76 -10 -10 -28 3 -85 60 -65 65 -97 86 -97
64 0 -4 27 -34 60 -67 33 -33 60 -65 60 -72 0 -30 -41 -9 -102 52 -37 36 -71
65 -77 65 -6 0 -11 7 -11 15 0 26 -38 38 -65 21 -19 -12 -25 -13 -34 -2 -8 9
0 32 32 89 36 66 46 76 70 77 26 0 27 -1 13 -22z m-42 -167 c10 -16 -5 -41
-25 -41 -21 0 -25 20 -7 38 14 14 25 15 32 3z m51 -56 c0 -25 -31 -43 -46 -28
-10 10 -8 17 6 33 21 24 40 21 40 -5z m50 -36 c7 -11 -22 -49 -37 -49 -15 0
-21 30 -8 45 15 18 36 20 45 4z m42 -64 c-9 -21 -36 -30 -50 -16 -9 10 -7 17
12 32 26 21 48 12 38 -16z"/>
</g>
</svg>
